Coordinates
version=1
nRows=26
nColumns=22
inDegrees=yes

Units are S.I. units (second, meters, Newtons, ...)
If the header above contains a line with 'inDegrees', this indicates whether rotational values are in degrees (yes) or radians (no).

endheader
time	pelvis_tilt	pelvis_list	pelvis_rotation	pelvis_tx	pelvis_ty	pelvis_tz	hip_flexion_r	hip_adduction_r	hip_rotation_r	knee_angle_r	ankle_angle_r	subtalar_angle_r	hip_flexion_l	hip_adduction_l	hip_rotation_l	knee_angle_l	ankle_angle_l	subtalar_angle_l	lumbar_extension	lumbar_bending	lumbar_rotation
      0.01000000	      0.52409423	     -1.21433067	     -0.22933461	      0.12482390	      1.08388223	      1.15886567	     -2.87387139	      2.67019735	     -4.79191749	     -9.93185919	     12.85056333	     -2.13545427	     -3.07964925	     -0.39290526	     -1.59736887	    -10.89114227	     13.41519113	     -3.88910782	     -4.10692998	     -1.16825001	     -5.72610495
      0.02000000	      0.51879854	     -1.21524167	     -0.23460697	      0.12491532	      1.08385187	      1.15897032	     -2.87139412	      2.67665494	     -4.79105372	     -9.93446756	     12.85181681	     -2.13546966	     -3.08167080	     -0.39965467	     -1.59850159	    -10.88875058	     13.41690160	     -3.89005126	     -4.10984418	     -1.17487132	     -5.72854517
      0.03000000	      0.51045404	     -1.22358578	     -0.24786698	      0.12503219	      1.08380874	      1.15908919	     -2.85308327	      2.68979090	     -4.77920390	     -9.96535526	     12.86558170	     -2.13744014	     -3.09293085	     -0.41459830	     -1.61341318	    -10.86591291	     13.43084978	     -3.89350324	     -4.10859844	     -1.16810204	     -5.73801353
      0.04000000	      0.49826492	     -1.23090986	     -0.27376681	      0.12515229	      1.08375457	      1.15923818	     -2.82832526	      2.70170328	     -4.76586617	     -9.99856173	     12.89197149	     -2.14203647	     -3.09615396	     -0.42807758	     -1.63294468	    -10.85543760	     13.44685807	     -3.89551855	     -4.10741781	     -1.16519197	     -5.72973307
      0.05000000	      0.48755298	     -1.23205402	     -0.28851983	      0.12529867	      1.08370382	      1.15939131	     -2.80805119	      2.70939995	     -4.75270097	    -10.03026725	     12.90627100	     -2.14653114	     -3.10291945	     -0.43736881	     -1.64791310	    -10.84110087	     13.45523117	     -3.89449794	     -4.10626282	     -1.17250628	     -5.73680733
      0.06000000	      0.47635958	     -1.23299298	     -0.30605436	      0.12545271	      1.08365054	      1.15955579	     -2.78356301	      2.71683295	     -4.73889634	    -10.06913866	     12.92656020	     -2.15331338	     -3.11261232	     -0.44656027	     -1.66176736	    -10.82224554	     13.46321186	     -3.89228272	     -4.10655940	     -1.17916895	     -5.74334090
      0.07000000	      0.45688449	     -1.22931889	     -0.33188989	      0.12561495	      1.08358210	      1.15973904	     -2.74454327	      2.71986147	     -4.71653847	    -10.12008415	     12.97084947	     -2.17256832	     -3.11417726	     -0.45053515	     -1.68819404	    -10.80414200	     13.47165528	     -3.88579854	     -4.09776314	     -1.19322144	     -5.72544231
      0.08000000	      0.44638420	     -1.22765135	     -0.33755919	      0.12579655	      1.08353448	      1.15990252	     -2.72740315	      2.72705797	     -4.70285746	    -10.14983609	     12.97474800	     -2.17754636	     -3.12597318	     -0.45837633	     -1.69954124	    -10.78272593	     13.47630556	     -3.88475336	     -4.10008708	     -1.20255490	     -5.75111185
      0.09000000	      0.43294682	     -1.22608897	     -0.35412367	      0.12598173	      1.08348229	      1.16008235	     -2.70394998	      2.73332304	     -4.69051933	    -10.18531674	     12.99595918	     -2.18780211	     -3.13863234	     -0.46458736	     -1.71082610	    -10.75682165	     13.48103783	     -3.88282250	     -4.10101868	     -1.20878062	     -5.77000329
      0.10000000	      0.41063690	     -1.21759137	     -0.36744209	      0.12616890	      1.08341343	      1.16027907	     -2.67046022	      2.73389031	     -4.67436578	    -10.22368085	     13.04180872	     -2.21478859	     -3.13912244	     -0.46560142	     -1.72913842	    -10.73504146	     13.48328982	     -3.87810775	     -4.09170470	     -1.22780721	     -5.76852638
      0.11000000	      0.39634027	     -1.21425176	     -0.36889436	      0.12637426	      1.08336405	      1.16046332	     -2.65936769	      2.74124132	     -4.66708029	    -10.23768593	     13.04729435	     -2.21994299	     -3.14678225	     -0.47277394	     -1.74000854	    -10.71515622	     13.48743990	     -3.87747250	     -4.09135100	     -1.23749001	     -5.79573770
      0.12000000	      0.37970072	     -1.21086168	     -0.36698994	      0.12658333	      1.08331006	      1.16065175	     -2.64937302	      2.74887643	     -4.66242615	    -10.24685230	     13.06627956	     -2.22605912	     -3.15144522	     -0.48048885	     -1.74711602	    -10.69584437	     13.49169234	     -3.87597728	     -4.08869573	     -1.24585525	     -5.82094724
      0.13000000	      0.36072341	     -1.20661987	     -0.36035626	      0.12679636	      1.08324974	      1.16084020	     -2.64169988	      2.75630167	     -4.66107116	    -10.24846518	     13.09373448	     -2.23141459	     -3.15047153	     -0.48792373	     -1.74901200	    -10.68166047	     13.49738476	     -3.87334773	     -4.08405004	     -1.25489085	     -5.84773807
      0.14000000	      0.34784958	     -1.20255105	     -0.35656246	      0.12699797	      1.08320096	      1.16104792	     -2.64077775	      2.76428897	     -4.66100790	    -10.24781382	     13.09915592	     -2.23156814	     -3.15041070	     -0.49634699	     -1.74964916	    -10.67814763	     13.49894688	     -3.87301995	     -4.09070412	     -1.26644349	     -5.85340432
      0.15000000	      0.32347162	     -1.19736615	     -0.33741575	      0.12724178	      1.08312251	      1.16122179	     -2.63926782	      2.77136531	     -4.65811434	    -10.23394478	     13.15683113	     -2.23079889	     -3.14214586	     -0.50412077	     -1.74526530	    -10.66661205	     13.51445391	     -3.86812664	     -4.07673714	     -1.27038955	     -5.90628831
      0.16000000	      0.28347180	     -1.18758127	     -0.30300688	      0.12743853	      1.08301451	      1.16138848	     -2.60462560	      2.77259476	     -4.70164788	    -10.24711335	     13.20994015	     -2.21153821	     -3.09638288	     -0.50776617	     -1.69592863	    -10.69071985	     13.54559999	     -3.84532238	     -4.05517127	     -1.28339136	     -5.95695082
      0.17000000	      0.26290331	     -1.18264313	     -0.29346624	      0.12767460	      1.08293615	      1.16159960	     -2.60544292	      2.78061772	     -4.68749234	    -10.23492675	     13.25008055	     -2.20440882	     -3.08635600	     -0.51725122	     -1.69945055	    -10.69120160	     13.55161250	     -3.84121361	     -4.05383487	     -1.28880598	     -5.98518795
      0.18000000	      0.24335169	     -1.17654784	     -0.28584630	      0.12790823	      1.08284876	      1.16182689	     -2.59991803	      2.78750170	     -4.67485426	    -10.23834440	     13.30437748	     -2.19287121	     -3.07271439	     -0.52580177	     -1.69216089	    -10.70295090	     13.56998805	     -3.83597719	     -4.05790316	     -1.29673167	     -6.00996405
      0.19000000	      0.21892219	     -1.16826739	     -0.28580459	      0.12814727	      1.08274668	      1.16206217	     -2.58430694	      2.79038182	     -4.66763249	    -10.25040361	     13.37143860	     -2.17495026	     -3.05478434	     -0.53125020	     -1.68896089	    -10.71509589	     13.59635258	     -3.82783576	     -4.05898775	     -1.30260117	     -6.03170460
      0.20000000	      0.18806277	     -1.15806399	     -0.29322426	      0.12838143	      1.08263175	      1.16231210	     -2.55269485	      2.79012233	     -4.65861701	    -10.27922453	     13.44145961	     -2.14932420	     -3.02803752	     -0.53457743	     -1.69135691	    -10.73178346	     13.62390388	     -3.81468058	     -4.05771146	     -1.30953145	     -6.03669247
      0.21000000	      0.15089758	     -1.14827278	     -0.30739889	      0.12863986	      1.08250443	      1.16260298	     -2.50949079	      2.79244892	     -4.64165724	    -10.31947883	     13.51145977	     -2.12264098	     -2.99973049	     -0.54033189	     -1.70713416	    -10.74247050	     13.65068363	     -3.79885599	     -4.04749091	     -1.31961412	     -6.03091333
      0.22000000	      0.13313246	     -1.14014637	     -0.31505958	      0.12894598	      1.08241844	      1.16290041	     -2.50670743	      2.79860221	     -4.64191139	    -10.32228644	     13.51638075	     -2.12094580	     -2.99876207	     -0.54841214	     -1.70676241	    -10.74471859	     13.65241763	     -3.79783753	     -4.05811104	     -1.32643473	     -6.03120918
      0.23000000	      0.02777659	     -1.11525412	     -0.37059420	      0.12916997	      1.08218294	      1.16326468	     -2.35295852	      2.78166707	     -4.58393292	    -10.42925350	     13.62861374	     -2.05959739	     -2.88018540	     -0.53972818	     -1.78250990	    -10.79167463	     13.70491941	     -3.74087096	     -3.97655308	     -1.35092393	     -5.97198329
      0.24000000	     -0.01115873	     -1.11511329	     -0.39011127	      0.12950425	      1.08204675	      1.16360913	     -2.30414149	      2.79664328	     -4.57291172	    -10.48228632	     13.70549858	     -2.05385714	     -2.85493047	     -0.55784987	     -1.78553052	    -10.80433301	     13.73835771	     -3.72452874	     -3.96234040	     -1.34706716	     -5.94992498
      0.25000000	     -0.06543262	     -1.10280846	     -0.42318697	      0.12980366	      1.08188336	      1.16398790	     -2.22157546	      2.79847479	     -4.54048253	    -10.56395908	     13.78200380	     -2.04701430	     -2.80095800	     -0.56447861	     -1.81402592	    -10.83805127	     13.78026329	     -3.70037921	     -3.94063843	     -1.35626897	     -5.91676188
      0.26000000	     -0.12839189	     -1.09360219	     -0.45347371	      0.13012373	      1.08170853	      1.16437561	     -2.13043696	      2.80476181	     -4.50479804	    -10.64597462	     13.85037389	     -2.04388835	     -2.73201458	     -0.57570672	     -1.83648181	    -10.88455858	     13.82415571	     -3.67165349	     -3.90979292	     -1.36011267	     -5.89146171
